<svg id="Google_Pay_Logo" xmlns="http://www.w3.org/2000/svg" width="53.924" height="21.432" viewBox="0 0 53.924 21.432">
  <path id="Path_18881" data-name="Path 18881" d="M36.822,15.232V21.5H34.8V6h5.256a5.016,5.016,0,0,1,3.437,1.348,4.282,4.282,0,0,1,1.415,3.3,4.383,4.383,0,0,1-1.415,3.3A4.9,4.9,0,0,1,40.056,15.3l-3.234-.067Zm0-7.345v5.391h3.369a2.7,2.7,0,0,0,2.022-4.515L42.145,8.7a2.457,2.457,0,0,0-1.954-.809Z" transform="translate(-11.333 -4.783)" fill="#5f6368"/>
  <path id="Path_18882" data-name="Path 18882" d="M54.45,12.8a4.925,4.925,0,0,1,3.5,1.213,4.167,4.167,0,0,1,1.28,3.234v6.469H57.347V22.234H57.28a3.829,3.829,0,0,1-3.3,1.819,4.519,4.519,0,0,1-2.965-1.011A3.582,3.582,0,0,1,49.8,20.414a3.26,3.26,0,0,1,1.213-2.628,5.063,5.063,0,0,1,3.3-.943,5.276,5.276,0,0,1,2.9.674v-.472a2.173,2.173,0,0,0-.809-1.752,3.065,3.065,0,0,0-4.582.674L50.07,14.889A5.133,5.133,0,0,1,54.45,12.8Zm-2.561,7.682a1.533,1.533,0,0,0,.674,1.28,2.7,2.7,0,0,0,1.55.539,3.171,3.171,0,0,0,2.224-.943A2.844,2.844,0,0,0,57.347,19.2a4.207,4.207,0,0,0-2.628-.741,3.275,3.275,0,0,0-2.022.606A1.584,1.584,0,0,0,51.889,20.482Z" transform="translate(-16.226 -7.001)" fill="#5f6368"/>
  <path id="Path_18883" data-name="Path 18883" d="M74.879,13.3,68.208,28.6H66.187l2.493-5.323L64.3,13.367h2.156l3.167,7.614h.067l3.1-7.614h2.089Z" transform="translate(-20.955 -7.164)" fill="#5f6368"/>
  <path id="Path_18884" data-name="Path 18884" d="M21.758,16.819A16.523,16.523,0,0,0,21.623,15H13.2v3.437h4.784a4.086,4.086,0,0,1-1.752,2.7v2.224h2.9A8.669,8.669,0,0,0,21.758,16.819Z" transform="translate(-4.288 -7.719)" fill="#4285f4"/>
  <path id="Path_18885" data-name="Path 18885" d="M9.351,27.11a8.63,8.63,0,0,0,5.93-2.156l-2.9-2.224a5.372,5.372,0,0,1-3.032.876A5.279,5.279,0,0,1,4.365,19.9H1.4v2.291A8.9,8.9,0,0,0,9.351,27.11Z" transform="translate(-0.44 -9.317)" fill="#34a853"/>
  <path id="Path_18886" data-name="Path 18886" d="M3.9,17.128a5.019,5.019,0,0,1,0-3.437V11.4H.935a8.85,8.85,0,0,0,0,8.019Z" transform="translate(0.025 -6.545)" fill="#fbbc04"/>
  <path id="Path_18887" data-name="Path 18887" d="M9.384,7.7A5.016,5.016,0,0,1,12.821,9.05h0l2.561-2.561A8.521,8.521,0,0,0,9.451,4.2,8.829,8.829,0,0,0,1.5,9.117l2.965,2.291A5.134,5.134,0,0,1,9.384,7.7Z" transform="translate(-0.472 -4.195)" fill="#ea4335"/>
</svg>
