<svg xmlns="http://www.w3.org/2000/svg" width="29.225" height="18.51" viewBox="0 0 29.225 18.51">
  <g id="Group_27026" data-name="Group 27026" transform="translate(-11.364 -12.314)">
    <path id="amazon-pay-svgrepo-com" d="M8.775,8l-.2.034a3.687,3.687,0,0,0-1.762.7,2.982,2.982,0,0,0-.329.251.158.158,0,0,1-.023-.069C6.434,8.8,6.422,8.66,6.4,8.535a.324.324,0,0,0-.352-.308H5.513c-.329,0-.386.07-.386.388v9.864a.237.237,0,0,0,.226.238h.989c.136,0,.216-.09.226-.238a.543.543,0,0,0,.011-.137V14.915c.046.046.08.069.1.091a3.25,3.25,0,0,0,2.831.715A2.822,2.822,0,0,0,11.549,14.1a4.492,4.492,0,0,0,.476-2.023A5.077,5.077,0,0,0,11.65,9.8,2.722,2.722,0,0,0,9.616,8.08c-.148-.034-.307-.046-.455-.068S8.9,8,8.775,8Zm7.571,0a.545.545,0,0,1-.135.023,6.708,6.708,0,0,0-1.341.192c-.284.068-.557.17-.83.261a.348.348,0,0,0-.251.363c.012.148,0,.307,0,.455.012.227.1.286.32.228.363-.091.727-.192,1.09-.261a5.5,5.5,0,0,1,1.728-.068,1.144,1.144,0,0,1,.784.4,1.3,1.3,0,0,1,.251.761c.012.387.011.693.011,1.079,0,.022,0,.044-.011.055H17.9a8.3,8.3,0,0,0-1.488-.226,3.957,3.957,0,0,0-1.545.183A2.246,2.246,0,0,0,13.5,12.6a2.444,2.444,0,0,0-.183,1.421,1.917,1.917,0,0,0,1,1.477,2.7,2.7,0,0,0,1.762.249A3.726,3.726,0,0,0,17.95,14.9c.022-.022.046-.033.068-.055.034.182.057.353.091.512a.269.269,0,0,0,.251.249h.761a.226.226,0,0,0,.217-.226.421.421,0,0,0,.011-.126V10.4a3.781,3.781,0,0,0-.049-.592,1.846,1.846,0,0,0-.887-1.421,2.773,2.773,0,0,0-1.01-.329c-.17-.023-.33-.035-.5-.057Zm3.941,0c-.114,0-.171.1-.148.215a2.622,2.622,0,0,0,.091.285q1.363,3.376,2.75,6.76a.615.615,0,0,1,0,.546c-.147.34-.273.692-.432,1.033a1.05,1.05,0,0,1-.7.626,1.877,1.877,0,0,1-.715.046c-.114-.012-.229-.034-.343-.046-.16-.012-.238.056-.249.226v.457c.012.262.091.375.352.421a5.858,5.858,0,0,0,.784.089,1.955,1.955,0,0,0,1.83-1,5.981,5.981,0,0,0,.432-.852c1.1-2.784,2.193-5.557,3.284-8.353a.927.927,0,0,0,.067-.251c.022-.136-.046-.2-.169-.2H26.2a.367.367,0,0,0-.363.238c-.022.068-.046.124-.069.192l-1.625,4.648c-.114.329-.24.67-.354,1.033-.023-.057-.034-.08-.046-.114-.6-1.659-1.192-3.317-1.794-4.976-.091-.273-.193-.536-.295-.8a.306.306,0,0,0-.3-.215C21,8,20.65,8,20.286,8ZM8.763,9.182a1.7,1.7,0,0,1,1.556,1.2,4.241,4.241,0,0,1,.228,1.505,4.409,4.409,0,0,1-.181,1.387,1.8,1.8,0,0,1-1.979,1.33,3.291,3.291,0,0,1-1.739-.649.145.145,0,0,1-.08-.147V9.954a.153.153,0,0,1,.08-.158A3.214,3.214,0,0,1,8.763,9.182Zm7.373,3.069a2.855,2.855,0,0,1,.584.009c.387.034.774.1,1.161.158.08.012.1.046.1.114-.012.228,0,.444,0,.672s-.011.432-.011.66A.136.136,0,0,1,17.9,14a3.591,3.591,0,0,1-1.739.695,1.629,1.629,0,0,1-.773-.08.935.935,0,0,1-.578-.626,1.618,1.618,0,0,1-.011-.9,1.108,1.108,0,0,1,.761-.727A2.826,2.826,0,0,1,16.136,12.251Z" transform="translate(10.257 4.314)" fill="#232f3e"/>
    <path id="amazon-pay-svgrepo-com-2" data-name="amazon-pay-svgrepo-com" d="M28.318,20a5.1,5.1,0,0,0-2.8.788c-.251.174-.207.417.072.384.916-.11,2.954-.357,3.318.108s-.4,2.387-.744,3.246c-.105.256.117.362.352.167,1.524-1.276,1.92-3.952,1.608-4.336A3.079,3.079,0,0,0,28.318,20Zm-27.107.974c-.212.029-.3.3-.082.512a20.648,20.648,0,0,0,14.457,5.332,20.388,20.388,0,0,0,11.829-3.758c.529-.408.078-1.02-.464-.778A27.808,27.808,0,0,1,15.92,24.629,27.963,27.963,0,0,1,1.457,21.039.379.379,0,0,0,1.211,20.976Z" transform="translate(10.363 4.005)" fill="#f90"/>
  </g>
</svg>
