<svg id="paytm-icon" xmlns="http://www.w3.org/2000/svg" width="57.718" height="18.092" viewBox="0 0 57.718 18.092">
  <path id="Path_18888" data-name="Path 18888" d="M94.644,5.335a3.849,3.849,0,0,0-3.626-2.574H90.98a3.832,3.832,0,0,0-2.771,1.184,3.832,3.832,0,0,0-2.771-1.184h-.033a3.838,3.838,0,0,0-2.508.93V3.4a.565.565,0,0,0-.564-.526H79.76a.567.567,0,0,0-.568.568V17.411a.567.567,0,0,0,.568.568h2.574a.563.563,0,0,0,.559-.488V7.463a.661.661,0,0,1,0-.1.936.936,0,0,1,.888-.86h.474a.961.961,0,0,1,.54.211.941.941,0,0,1,.348.751l.009,9.976a.571.571,0,0,0,.568.573H88.3a.564.564,0,0,0,.564-.54V7.458a.942.942,0,0,1,.418-.8,1.073,1.073,0,0,1,.474-.16h.474a.939.939,0,0,1,.892.963l.009,9.966a.567.567,0,0,0,.568.568h2.574a.57.57,0,0,0,.568-.531V6.533a3.416,3.416,0,0,0-.2-1.2ZM77.228,2.912h-1.47V.517A.519.519,0,0,0,75.237,0a.7.7,0,0,0-.1.009c-1.63.446-1.306,2.705-4.283,2.9h-.287a.583.583,0,0,0-.127.014h0A.579.579,0,0,0,70,3.48V6.054a.567.567,0,0,0,.568.568h1.55l0,10.906a.565.565,0,0,0,.564.564h2.546a.565.565,0,0,0,.564-.564V6.622h1.442a.573.573,0,0,0,.568-.568V3.48a.567.567,0,0,0-.568-.568Z" transform="translate(-37.123)" fill="#00baf2"/>
  <path id="Path_18889" data-name="Path 18889" d="M30.853,6.195H28.279a.57.57,0,0,0-.568.568v5.321a.6.6,0,0,1-.6.592H26.034a.6.6,0,0,1-.606-.6l-.009-5.312a.567.567,0,0,0-.568-.568H22.277a.567.567,0,0,0-.568.568v5.829A3.653,3.653,0,0,0,25.5,16.387s1.663,0,1.714.009a.6.6,0,0,1,0,1.193.137.137,0,0,0-.042.009l-3.762.014a.567.567,0,0,0-.568.568V20.75a.567.567,0,0,0,.568.568h4.2a3.649,3.649,0,0,0,3.795-3.79V6.763a.56.56,0,0,0-.564-.568Zm-14.635.014h-3.57a.555.555,0,0,0-.573.531V9.154a.591.591,0,0,0,.606.568h3.4a.6.6,0,0,1,.512.545V10.6a.563.563,0,0,1-.5.526H14.414A3.569,3.569,0,0,0,10.582,14.7v2.992a3.369,3.369,0,0,0,3.593,3.551h4.664a1.47,1.47,0,0,0,1.517-1.414V10.07c0-2.367-1.221-3.861-4.138-3.861Zm.409,10.737v.4a.578.578,0,0,1-.009.094.567.567,0,0,1-.023.085.6.6,0,0,1-.573.39H14.95a.588.588,0,0,1-.606-.568v-2.2a.587.587,0,0,1,.606-.564h1.071a.588.588,0,0,1,.606.568v1.794ZM6.181,6.19H.559A.56.56,0,0,0,0,6.749V20.726a.55.55,0,0,0,.521.568H3.142a.567.567,0,0,0,.568-.568l.009-3.908H6.181a3.34,3.34,0,0,0,3.494-3.5V9.694a3.346,3.346,0,0,0-3.494-3.5Zm-.225,4.716v1.587a.6.6,0,0,1-.6.606H3.725V9.919h1.63a.6.6,0,0,1,.6.6v.385Z" transform="translate(0 -3.283)" fill="#20336b"/>
</svg>
