<svg xmlns="http://www.w3.org/2000/svg" width="30.667" height="30.667" viewBox="0 0 30.667 30.667">
  <g id="phonepe-icon" transform="translate(0 0)">
    <ellipse id="Ellipse_967" data-name="Ellipse 967" cx="12.746" cy="12.746" rx="12.746" ry="12.746" transform="translate(0 24.809) rotate(-76.714)" fill="#5f259f"/>
    <path id="Path_18890" data-name="Path 18890" d="M141.187,76.768a.943.943,0,0,0-.925-.926h-1.709l-3.916-4.486a1.443,1.443,0,0,0-1.5-.427l-1.353.427a.315.315,0,0,0-.143.5l4.273,4.059h-6.48a.337.337,0,0,0-.356.356v.712a.943.943,0,0,0,.926.926h1v3.418c0,2.563,1.353,4.058,3.632,4.058a4.929,4.929,0,0,0,1.993-.356v2.278a1.125,1.125,0,0,0,1.14,1.14h1a.459.459,0,0,0,.427-.428V77.836h1.638a.336.336,0,0,0,.356-.356v-.712Zm-4.557,6.123a3.391,3.391,0,0,1-1.424.285c-1.14,0-1.709-.57-1.709-1.851V77.907h3.133Z" transform="translate(-120.069 -64.761)" fill="#fff"/>
  </g>
</svg>
