<svg id="WhatsApp" xmlns="http://www.w3.org/2000/svg" xmlns:xlink="http://www.w3.org/1999/xlink" width="27.121" height="27.243" viewBox="0 0 27.121 27.243">
  <defs>
    <linearGradient id="linear-gradient" x1="0.49" y1="0.06" x2="0.495" y2="0.915" gradientUnits="objectBoundingBox">
      <stop offset="0" stop-color="#57d163"/>
      <stop offset="1" stop-color="#23b33a"/>
    </linearGradient>
  </defs>
  <path id="Path_18892" data-name="Path 18892" d="M12.966,40.045l1.916-7a13.5,13.5,0,1,1,11.7,6.761h-.006a13.5,13.5,0,0,1-6.453-1.643Z" transform="translate(-12.966 -12.802)" fill="#fff"/>
  <path id="Path_18893" data-name="Path 18893" d="M37.234,25.227a11.226,11.226,0,0,0-9.512,17.191l.267.424-1.134,4.14L31.1,45.868l.41.243a11.209,11.209,0,0,0,5.713,1.564h0a11.225,11.225,0,0,0,0-22.449Z" transform="translate(-23.613 -22.946)" fill="rgba(0,0,0,0)"/>
  <path id="Path_18894" data-name="Path 18894" d="M37.234,25.227a11.226,11.226,0,0,0-9.512,17.191l.267.425-1.134,4.14L31.1,45.868l.41.243a11.209,11.209,0,0,0,5.713,1.564h0a11.224,11.224,0,0,0,0-22.449Z" transform="translate(-23.613 -22.946)" fill="url(#linear-gradient)"/>
  <path id="Path_18895" data-name="Path 18895" d="M53.261,52.975c-.253-.562-.519-.573-.759-.583l-.647-.008a1.239,1.239,0,0,0-.9.422,3.784,3.784,0,0,0-1.181,2.814,6.565,6.565,0,0,0,1.378,3.49c.168.225,2.334,3.741,5.764,5.093,2.85,1.124,3.43.9,4.049.844a3.406,3.406,0,0,0,2.277-1.6,2.822,2.822,0,0,0,.2-1.6c-.084-.141-.309-.225-.647-.394s-2-.985-2.306-1.1-.534-.169-.759.169-.871,1.1-1.068,1.323-.393.253-.731.085a9.211,9.211,0,0,1-2.713-1.675,10.181,10.181,0,0,1-1.877-2.336c-.2-.338-.021-.52.148-.688.151-.151.337-.394.506-.591a2.287,2.287,0,0,0,.337-.563.621.621,0,0,0-.028-.591c-.084-.169-.74-1.837-1.04-2.5" transform="translate(-43.018 -45.119)" fill="#fff" fill-rule="evenodd"/>
</svg>
